<svg width="20" height="20" viewBox="0 0 20 20" fill="none"
    xmlns="http://www.w3.org/2000/svg">
    <path d="M16.6667 1.66666H3.33333C2.781 1.66732 2.25148 1.88702 1.86092 2.27758C1.47037 2.66814 1.25066 3.19766 1.25 3.74999V12.9167C1.25066 13.469 1.47037 13.9985 1.86092 14.3891C2.25148 14.7796 2.781 14.9993 3.33333 15H7.91667V15.7942C7.91667 15.8083 7.92292 15.82 7.92375 15.8333H4.44458C4.03949 15.8338 3.65111 15.9949 3.36467 16.2813C3.07823 16.5678 2.91711 16.9561 2.91667 17.3612C2.917 17.619 3.01952 17.866 3.20175 18.0482C3.38398 18.2305 3.63104 18.333 3.88875 18.3333H16.1112C16.369 18.333 16.616 18.2305 16.7983 18.0482C16.9805 17.866 17.083 17.619 17.0833 17.3612C17.0829 16.9561 16.9218 16.5678 16.6353 16.2813C16.3489 15.9949 15.9605 15.8338 15.5554 15.8333H12.0762C12.0762 15.82 12.0833 15.8083 12.0833 15.7942V15H16.6667C17.219 14.9993 17.7485 14.7796 18.1391 14.3891C18.5296 13.9985 18.7493 13.469 18.75 12.9167V3.74999C18.7493 3.19766 18.5296 2.66814 18.1391 2.27758C17.7485 1.88702 17.219 1.66732 16.6667 1.66666ZM3.33333 2.49999H16.6667C16.9982 2.49999 17.3161 2.63169 17.5505 2.86611C17.785 3.10053 17.9167 3.41847 17.9167 3.74999V12.0833H2.08333V3.74999C2.08333 3.41847 2.21503 3.10053 2.44945 2.86611C2.68387 2.63169 3.00181 2.49999 3.33333 2.49999ZM16.25 17.3612C16.25 17.398 16.2354 17.4333 16.2094 17.4594C16.1833 17.4854 16.148 17.5 16.1112 17.5H3.88875C3.85195 17.5 3.81666 17.4854 3.79064 17.4594C3.76462 17.4333 3.75 17.398 3.75 17.3612C3.75022 17.1771 3.82347 17.0006 3.95368 16.8703C4.08389 16.7401 4.26044 16.6669 4.44458 16.6667H15.5554C15.7396 16.6669 15.9161 16.7401 16.0463 16.8703C16.1765 17.0006 16.2498 17.1771 16.25 17.3612ZM11.2571 15.8333H8.74292C8.74292 15.82 8.75 15.8083 8.75 15.7942V15H11.25V15.7942C11.25 15.8083 11.2562 15.82 11.2571 15.8333ZM16.6667 14.1667H3.33333C3.00181 14.1667 2.68387 14.035 2.44945 13.8005C2.21503 13.5661 2.08333 13.2482 2.08333 12.9167H17.9167C17.9167 13.2482 17.785 13.5661 17.5505 13.8005C17.3161 14.035 16.9982 14.1667 16.6667 14.1667Z" fill="black"/>
    <path d="M6.37232 9.87792C6.4509 9.95382 6.55615 9.99582 6.6654 9.99487C6.77465 9.99392 6.87916 9.9501 6.95641 9.87285C7.03366 9.79559 7.07748 9.69109 7.07843 9.58184C7.07938 9.47259 7.03739 9.36734 6.96149 9.28876L5.17274 7.50001L6.96149 5.71126C7.03739 5.63267 7.07938 5.52742 7.07843 5.41817C7.07748 5.30892 7.03366 5.20442 6.95641 5.12717C6.87916 5.04991 6.77465 5.00609 6.6654 5.00514C6.55615 5.00419 6.4509 5.04619 6.37232 5.12209L4.28899 7.20542C4.21087 7.28356 4.16699 7.38952 4.16699 7.50001C4.16699 7.61049 4.21087 7.71645 4.28899 7.79459L6.37232 9.87792Z" fill="black"/>
    <path d="M13.039 9.87792C13.1171 9.95604 13.2231 9.99992 13.3336 9.99992C13.4441 9.99992 13.55 9.95604 13.6282 9.87792L15.7115 7.79459C15.7896 7.71645 15.8335 7.61049 15.8335 7.50001C15.8335 7.38952 15.7896 7.28356 15.7115 7.20542L13.6282 5.12209C13.5496 5.04619 13.4443 5.00419 13.3351 5.00514C13.2258 5.00609 13.1213 5.04991 13.0441 5.12717C12.9668 5.20442 12.923 5.30892 12.922 5.41817C12.9211 5.52742 12.9631 5.63267 13.039 5.71126L14.8277 7.50001L13.039 9.28876C12.9609 9.36689 12.917 9.47286 12.917 9.58334C12.917 9.69383 12.9609 9.79979 13.039 9.87792Z" fill="black"/>
    <path d="M8.56366 10.375C8.61262 10.3995 8.66594 10.4141 8.72055 10.4179C8.77516 10.4218 8.82999 10.4149 8.88192 10.3975C8.93385 10.3802 8.98186 10.3528 9.02319 10.3169C9.06453 10.281 9.09838 10.2373 9.12282 10.1883L11.6228 5.18833C11.6722 5.08942 11.6803 4.97495 11.6453 4.87008C11.6103 4.76522 11.5351 4.67856 11.4362 4.62916C11.3373 4.57976 11.2228 4.57168 11.1179 4.60669C11.0131 4.64169 10.9264 4.71692 10.877 4.81583L8.37699 9.81583C8.35251 9.86479 8.33792 9.91811 8.33405 9.97272C8.33018 10.0273 8.33711 10.0822 8.35445 10.1341C8.37178 10.186 8.39918 10.234 8.43508 10.2754C8.47098 10.3167 8.51467 10.3506 8.56366 10.375Z" fill="black"/>
</svg>
